<svg width="27" height="12" viewBox="0 0 27 12" fill="none" xmlns="http://www.w3.org/2000/svg">
<path d="M26.1211 11.4992L23.3715 11.4992V9.60882C22.5126 10.5068 21.3521 11.1555 19.8164 11.1555C17.6282 11.1555 15.1046 9.81152 12.1184 7.00105C9.26171 4.31236 7.40322 3.59412 6.30478 3.59412C5.37309 3.59412 4.6549 4.13112 4.04977 5.27015C3.43417 6.42891 3.0955 7.95544 2.92033 9.27436C2.83478 9.91854 2.79181 10.4831 2.77047 10.8848C2.75983 11.0851 2.75474 11.2436 2.75218 11.3498C2.75089 11.4028 2.75029 11.4428 2.74999 11.4681C2.74985 11.4807 2.74969 11.4897 2.74966 11.495V11.5C2.74966 11.4997 2.74966 11.4992 1.46834 11.4992L7.82013e-05 11.4992V0.500838L2.74966 0.500838V2.39117C3.60856 1.49324 4.76907 0.844537 6.30478 0.844536C8.49295 0.844536 11.0168 2.18848 14.0029 4.99895C16.8596 7.68758 18.718 8.40588 19.8164 8.40588C20.7481 8.40588 21.4664 7.86893 22.0716 6.72985C22.6872 5.57109 23.0257 4.04456 23.2008 2.72564C23.2864 2.08146 23.3294 1.5169 23.3507 1.11523C23.3613 0.914913 23.3664 0.756355 23.369 0.6502C23.3703 0.597168 23.3709 0.557246 23.3712 0.531886C23.3713 0.519281 23.3715 0.510276 23.3715 0.505035V0.5C23.3715 0.500351 23.3715 0.500839 24.7463 0.500839L26.1211 0.500839V11.4992Z" fill="white"/>
</svg>
