<svg width="512" height="512" viewBox="0 0 512 512" fill="none" xmlns="http://www.w3.org/2000/svg">
<rect width="512" height="512" rx="256" fill="#0D00FF"/>
<path d="M432 338.987L394.947 338.987L394.947 310.46C383.373 324.011 367.734 333.801 347.039 333.801C317.552 333.801 283.544 313.519 243.304 271.107C204.807 230.532 179.763 219.693 164.961 219.693C152.405 219.693 142.727 227.797 134.573 244.986C126.277 262.473 121.713 285.509 119.353 305.413C118.2 315.134 117.621 323.654 117.333 329.716C117.19 332.739 117.121 335.131 117.087 336.733C117.069 337.534 117.061 338.136 117.057 338.519C117.055 338.709 117.053 338.845 117.053 338.924L117.053 339C117.053 338.995 117.053 338.988 99.786 338.987L80 338.987L80 173.013L117.053 173.013L117.053 201.54C128.627 187.989 144.266 178.199 164.961 178.199C194.448 178.199 228.458 198.481 268.698 240.893C307.194 281.467 332.237 292.307 347.039 292.307C359.595 292.307 369.275 284.204 377.43 267.014C385.725 249.527 390.287 226.491 392.647 206.587C393.8 196.866 394.379 188.346 394.667 182.284C394.81 179.261 394.879 176.869 394.913 175.267C394.931 174.466 394.939 173.864 394.943 173.481C394.945 173.291 394.947 173.155 394.947 173.076L394.947 173C394.947 173.005 394.947 173.013 413.474 173.013L432 173.013L432 338.987Z" fill="white"/>
</svg>
