<svg preserveAspectRatio="none" width="100%" height="100%" overflow="visible" style="display: block;" viewBox="0 0 16 16" fill="none" xmlns="http://www.w3.org/2000/svg">
<g id="SVG">
<path id="Vector" d="M10.6667 10C8.66667 10 6.67333 9.6 6.67333 8C6.67333 6.4 8.66667 6 10.6667 6C12.3133 6 13.4267 6.26 14.06 6.66667C14.4867 6.94667 14.7267 7.36667 14.7267 8C14.7267 8.63333 14.4867 9.05333 14.06 9.33333C13.4267 9.74 12.3133 10 10.6667 10M6.67333 12C4.67333 12 2.68 11.6 2.68 10C2.68 8.4 4.67333 8 6.67333 8C8.32 8 9.43333 8.26 10.0667 8.66667C10.4933 8.94667 10.7333 9.36667 10.7333 10C10.7333 10.6333 10.4933 11.0533 10.0667 11.3333C9.43333 11.74 8.32 12 6.67333 12M4.66667 6C3.02 6 1.90667 5.74 1.27333 5.33333C0.846667 5.05333 0.606667 4.63333 0.606667 4C0.606667 3.36667 0.846667 2.94667 1.27333 2.66667C1.90667 2.26 3.02 2 4.66667 2C6.66667 2 8.66 2.4 8.66 4C8.66 5.6 6.66667 6 4.66667 6" stroke="var(--stroke-0, #38BDF8)" stroke-linecap="round" stroke-linejoin="round"/>
</g>
</svg>
