<svg preserveAspectRatio="none" width="100%" height="100%" overflow="visible" style="display: block;" viewBox="0 0 24 24" fill="none" xmlns="http://www.w3.org/2000/svg">
<g id="SVG">
<path id="Vector" d="M16 21V19C16 16.7923 14.2077 15 12 15H6C3.79234 15 2 16.7923 2 19V21" stroke="var(--stroke-0, white)" stroke-width="1.5" stroke-linecap="round" stroke-linejoin="round"/>
<path id="Vector_2" d="M5 7C5 8.42906 5.7624 9.74957 7 10.4641C8.2376 11.1786 9.7624 11.1786 11 10.4641C12.2376 9.74957 13 8.42906 13 7C13 4.79234 11.2077 3 9 3C6.79234 3 5 4.79234 5 7H5" stroke="var(--stroke-0, white)" stroke-width="2" stroke-linecap="round" stroke-linejoin="round"/>
<path id="Vector_3" d="M22 21V19C21.9986 17.1771 20.765 15.5857 19 15.13M16 3.13C17.7699 3.58317 19.0078 5.17799 19.0078 7.005C19.0078 8.83201 17.7699 10.4268 16 10.88" stroke="var(--stroke-0, white)" stroke-width="1.5" stroke-linecap="round" stroke-linejoin="round"/>
</g>
</svg>
