<svg preserveAspectRatio="none" width="100%" height="100%" overflow="visible" style="display: block;" viewBox="0 0 24 24" fill="none" xmlns="http://www.w3.org/2000/svg">
<g id="SVG">
<path id="Vector" d="M2 8C2 11.3115 4.68851 14 8 14C11.3115 14 14 11.3115 14 8C14 4.68851 11.3115 2 8 2C4.68851 2 2 4.68851 2 8V8" stroke="var(--stroke-0, white)" stroke-width="2" stroke-linecap="round" stroke-linejoin="round"/>
<path id="Vector_2" d="M18.09 10.37C20.6955 11.3414 22.2922 13.9757 21.9478 16.735C21.6035 19.4943 19.4084 21.6554 16.644 21.9567C13.8797 22.2579 11.2706 20.6204 10.34 18M7 6H8V10" stroke="var(--stroke-0, white)" stroke-width="1.5" stroke-linecap="round" stroke-linejoin="round"/>
<path id="Vector_3" d="M16.71 13.88L17.41 14.59L14.59 17.41L13.88 16.7L16.71 13.88" stroke="var(--stroke-0, white)" stroke-width="1.5" stroke-linecap="round" stroke-linejoin="round"/>
</g>
</svg>
