<svg width="32" height="32" viewBox="0 0 32 32" fill="none" xmlns="http://www.w3.org/2000/svg">
<g clip-path="url(#clip0_167_90)">
<path d="M15.9867 2.6665C8.62665 2.6665 2.65332 8.63984 2.65332 15.9998C2.65332 23.3598 8.62665 29.3332 15.9867 29.3332C23.3467 29.3332 29.32 23.3598 29.32 15.9998C29.32 8.63984 23.3467 2.6665 15.9867 2.6665ZM20.8 11.1198C22.2267 11.1198 23.3733 12.2665 23.3733 13.6932C23.3733 15.1198 22.2267 16.2665 20.8 16.2665C19.3733 16.2665 18.2267 15.1198 18.2267 13.6932C18.2133 12.2665 19.3733 11.1198 20.8 11.1198ZM12.8 9.01317C14.5333 9.01317 15.9467 10.4265 15.9467 12.1598C15.9467 13.8932 14.5333 15.3065 12.8 15.3065C11.0667 15.3065 9.65332 13.8932 9.65332 12.1598C9.65332 10.4132 11.0533 9.01317 12.8 9.01317ZM12.8 21.1865V26.1865C9.59999 25.1865 7.06665 22.7198 5.94665 19.5732C7.34665 18.0798 10.84 17.3198 12.8 17.3198C13.5067 17.3198 14.4 17.4265 15.3333 17.6132C13.1467 18.7732 12.8 20.3065 12.8 21.1865ZM15.9867 26.6665C15.6267 26.6665 15.28 26.6532 14.9333 26.6132V21.1865C14.9333 19.2932 18.8533 18.3465 20.8 18.3465C22.2267 18.3465 24.6933 18.8665 25.92 19.8798C24.36 23.8398 20.5067 26.6665 15.9867 26.6665Z" fill="white"/>
</g>
<defs>
<clipPath id="clip0_167_90">
<rect width="32" height="32" fill="white"/>
</clipPath>
</defs>
</svg>
